<svg width="177" height="91" viewBox="0 0 177 91" fill="none" xmlns="http://www.w3.org/2000/svg">
<path d="M46.578 16.824C46.578 16.39 46.454 16.328 46.144 16.328C45.896 16.328 45.834 16.886 45.214 19.304C40.316 37.718 15.206 57.992 5.472 57.992C3.922 57.992 3.178 56.566 3.178 54.272C3.178 43.36 19.794 11.926 42.92 11.926C43.726 11.926 44.036 12.298 44.036 12.856C44.036 15.894 34.426 25.38 30.892 25.38C30.706 25.38 30.644 25.318 30.644 25.256C30.644 24.822 31.14 24.698 31.14 24.388C31.14 24.14 30.892 24.078 30.768 24.078C30.396 24.078 28.908 25.752 28.908 26.372C28.908 26.806 29.404 26.992 30.024 27.116C36.534 27.054 44.904 17.134 44.904 12.98C44.904 11.864 44.284 11.182 42.92 11.182C18.554 11.182 0.946 40.384 0.946 52.97C0.946 56.442 2.248 58.612 5.162 58.612C24.32 58.55 44.532 32.138 46.578 16.824ZM30.7312 50.924L33.0872 49.436L34.8852 48.382C32.1572 51.792 27.9412 56.132 27.3212 56.814C27.3212 57.248 28.0652 57.124 28.9332 57.186C30.1732 57.186 30.8552 55.946 31.7232 55.264C32.1572 54.954 36.3112 51.854 40.6512 48.878C45.1152 45.778 50.2612 42.43 50.5712 42.244C50.5712 42.244 50.6332 42.182 50.6952 42.182C50.7572 42.182 50.8192 42.244 50.8192 42.306C50.8192 44.414 39.3492 51.42 39.3492 56.69C39.3492 56.938 39.4732 57.062 39.7212 57.062C41.8912 57.062 51.8732 50.428 51.8732 50.428L51.8112 49.622C51.8112 49.622 41.8292 56.194 40.7132 56.194C40.6512 56.194 40.6512 56.132 40.6512 56.132C40.6512 54.892 52.5552 46.088 52.5552 41.748C52.5552 41.376 52.4312 40.818 51.9972 40.818C51.3152 40.818 50.8812 41.19 50.0132 41.81C49.5172 42.244 37.9232 49.932 34.5752 52.536C34.4512 52.66 34.3272 52.722 34.2652 52.722C34.2032 52.722 34.2032 52.598 34.2032 52.598C34.2032 51.73 39.4732 46.46 42.3872 42.12C42.3872 40.88 41.6432 40.632 41.6432 40.632C39.8452 42.926 38.8532 44.848 32.5912 48.878L30.5452 50.18L30.7312 50.924ZM65.3349 41.066C65.3349 42.554 58.0809 48.754 53.7409 50.18C57.1509 45.716 62.7929 40.88 65.0869 40.88C65.2729 40.88 65.3349 40.942 65.3349 41.066ZM51.0129 55.698C51.0129 54.52 51.8189 52.846 53.1209 50.986C56.7169 49.932 67.5669 44.476 67.5669 41.066C67.5669 40.446 66.7609 40.136 66.1409 40.136C62.9789 40.136 49.7109 46.522 49.7109 54.954C49.7109 56.07 50.0209 57.124 51.4469 57.124C52.8729 57.124 57.0269 55.574 59.6309 54.024C62.6069 52.288 65.3969 50.428 65.3969 50.428L65.3349 49.622C65.3349 49.622 62.1729 51.668 59.2589 53.466C56.9029 54.892 52.5629 56.504 51.6329 56.504C51.2609 56.504 51.0129 56.194 51.0129 55.698ZM79.6259 39.826C85.2679 39.826 98.9699 25.504 98.9699 25.504C99.0319 25.38 99.0939 25.318 99.0939 25.256C99.0939 25.132 98.9699 25.07 98.7839 25.07C98.6599 25.07 98.4739 25.132 98.4119 25.194C98.4119 25.194 84.7719 39.02 80.1219 39.02C79.1299 39.02 78.6339 38.338 78.6339 37.222C78.6339 30.464 95.0019 6.842 108.89 6.842C110.006 6.842 110.936 7.4 110.936 8.826C110.936 18.126 76.8359 53.28 76.8359 55.946C76.8359 55.946 76.8979 56.69 78.5099 56.69C83.7799 50.986 116.764 21.66 120.546 18.25C120.67 18.188 120.732 18.126 120.794 18.126C120.794 18.126 120.856 18.126 120.856 18.188C120.856 19.8 96.9859 48.382 91.7779 54.892C91.0959 55.76 90.8479 56.256 90.8479 56.504C90.8479 56.814 92.0259 56.938 92.6459 56.938C93.2039 56.938 93.5759 56.69 94.0719 56.194C102.132 48.506 145.656 8.454 146.152 8.454C146.214 8.454 146.214 8.516 146.214 8.578C146.214 9.384 135.736 21.97 134.31 23.582C126.312 32.386 102.442 60.72 102.442 69.276C102.442 69.834 102.752 70.082 103.372 70.082C104.674 70.082 111.122 66.362 111.99 65.246C112.052 65.184 112.114 65.06 112.114 64.874C112.114 64.688 112.052 64.564 111.928 64.564C111.804 64.564 111.618 64.688 111.37 64.936C108.766 67.168 104.24 69.214 103.744 69.214C103.496 69.214 103.434 69.152 103.434 68.966C103.434 63.944 128.668 35.238 134.93 27.364C144.664 15.026 147.826 10.19 147.826 7.958C147.826 7.462 147.64 7.09 147.144 7.09C144.912 7.09 112.176 38.648 101.326 48.134C101.326 48.134 101.264 48.134 101.264 48.072C101.264 47.266 122.902 21.35 122.902 17.072C122.902 16.514 122.468 16.328 122.034 16.328C121.104 16.328 120.546 17.196 120.112 17.63C114.036 23.024 96.2419 39.144 86.9419 47.576C86.7559 47.7 86.4459 47.948 86.3839 47.886C93.2039 39.826 112.3 17.444 112.3 9.57C112.3 6.842 109.944 5.974 108.704 5.974C91.7159 5.974 77.3939 28.728 77.3939 36.912C77.3939 38.71 78.1379 39.826 79.6259 39.826ZM135.549 43.05C135.549 44.662 133.565 47.39 131.085 49.932C131.395 47.7 133.937 43.794 135.549 42.988V43.05ZM122.343 56.008C122.095 56.008 121.909 55.946 121.909 55.636C121.909 51.544 131.953 42.182 134.805 42.182C134.991 42.182 135.177 42.244 135.301 42.368C133.441 43.36 129.969 48.01 129.969 50.738V51.048C127.055 53.776 123.893 56.008 122.343 56.008ZM120.421 55.14C120.421 56.008 120.545 57 121.599 57C123.087 57 127.117 55.326 130.589 52.536C130.899 52.784 131.271 52.846 131.767 52.846C133.255 52.846 135.487 51.73 137.781 50.18L137.471 49.56C135.673 50.738 133.751 51.73 132.449 51.73C132.139 51.73 131.891 51.668 131.705 51.606C134.309 49.188 136.417 46.15 136.417 42.802C136.417 41.748 135.735 41.252 134.681 41.252C130.527 41.252 120.421 48.444 120.421 55.14ZM156.159 47.762L152.315 50.18C151.633 50.614 150.207 51.296 149.773 51.296C149.649 51.296 149.401 51.172 149.401 50.986C149.401 48.878 152.067 43.174 152.873 42.74C153.679 42.306 155.911 41.19 155.911 40.632C155.911 40.384 155.601 40.26 155.353 40.26C152.377 40.26 146.053 46.15 144.131 47.638C143.945 47.824 143.759 47.886 143.697 47.886C143.635 47.886 143.635 47.824 143.635 47.762C143.635 47.762 147.603 43.05 147.603 41.624C147.045 41.314 146.673 41.19 146.425 41.19C145.309 41.19 145.185 44.6 138.923 48.63L135.017 51.11L135.265 51.792C136.381 51.048 136.567 50.924 139.419 49.188L141.217 48.134C138.427 51.668 134.087 56.318 133.405 57.124C133.405 57.31 133.901 57.31 134.645 57.31C135.947 57.31 135.823 57 136.195 56.628C136.567 56.194 139.543 52.722 140.845 51.482C142.147 50.242 148.843 44.724 149.463 44.228C149.711 44.042 149.897 43.98 150.021 43.98L150.207 44.166C149.029 47.576 147.913 49.932 147.913 51.234C147.913 51.978 148.285 52.412 149.277 52.412C149.959 52.412 151.075 51.854 152.501 50.924C153.617 50.18 153.803 50.056 156.655 48.32L156.159 47.762ZM166.63 41.066C166.63 42.554 159.376 48.754 155.036 50.18C158.446 45.716 164.088 40.88 166.382 40.88C166.568 40.88 166.63 40.942 166.63 41.066ZM152.308 55.698C152.308 54.52 153.114 52.846 154.416 50.986C158.012 49.932 168.862 44.476 168.862 41.066C168.862 40.446 168.056 40.136 167.436 40.136C164.274 40.136 151.006 46.522 151.006 54.954C151.006 56.07 151.316 57.124 152.742 57.124C154.168 57.124 158.322 55.574 160.926 54.024C163.902 52.288 166.692 50.428 166.692 50.428L166.63 49.622C166.63 49.622 163.468 51.668 160.554 53.466C158.198 54.892 153.858 56.504 152.928 56.504C152.556 56.504 152.308 56.194 152.308 55.698Z" fill="white"/>
<path d="M3.35 85.0902H4.58V79.8252L9.365 85.0902H10.91L5.795 79.5252L10.445 73.9902H9.095L4.58 79.3602V73.9902H3.35V85.0902ZM22.0216 81.9702H27.1966L28.4866 85.0902H29.8366L25.2466 73.9902H24.0466L19.4116 85.0902H20.7466L22.0216 81.9702ZM26.8216 80.9502H22.3966L24.6016 75.3852L26.8216 80.9502ZM45.4957 74.9352V73.9902H38.4907V75.0852H44.0857L38.6407 84.2952V85.0902H45.7057V83.9952H40.1407L45.4957 74.9352ZM56.971 81.9702H62.146L63.436 85.0902H64.786L60.196 73.9902H58.996L54.361 85.0902H55.696L56.971 81.9702ZM61.771 80.9502H57.346L59.551 75.3852L61.771 80.9502ZM74.6551 85.0902H75.8851V79.8252L80.6701 85.0902H82.2151L77.1001 79.5252L81.7501 73.9902H80.4001L75.8851 79.3602V73.9902H74.6551V85.0902ZM92.9367 85.0902V80.0202H98.2917V85.0902H99.5367V73.9902H98.2917V78.9252H92.9367V73.9902H91.7067V85.0902H92.9367ZM109.616 82.0002C109.691 84.1152 111.236 85.2852 113.096 85.2852C115.166 85.2852 116.531 83.8452 116.531 82.0302C116.531 79.9902 114.881 79.4052 113.831 79.0002C112.151 78.4302 111.056 78.1002 111.071 76.7502C111.071 75.5952 111.986 74.8452 113.096 74.8452C114.566 74.8452 114.926 75.9402 115.061 76.6602H116.291C116.111 74.5602 114.521 73.7952 113.141 73.7952C111.446 73.7952 109.811 74.8902 109.841 76.8552C109.841 78.9552 111.776 79.5252 112.676 79.7952C113.966 80.2152 115.301 80.5602 115.301 82.1202C115.301 83.3502 114.236 84.2352 113.081 84.2352C112.391 84.2352 111.041 83.8452 110.861 82.0002H109.616ZM128.322 85.0902H129.567V75.0852H132.312V73.9902H125.592V75.0852H128.322V85.0902ZM142.389 81.9702H147.564L148.854 85.0902H150.204L145.614 73.9902H144.414L139.779 85.0902H141.114L142.389 81.9702ZM147.189 80.9502H142.764L144.969 75.3852L147.189 80.9502ZM161.093 73.9902H159.833V85.0902H161.033L161.003 75.7452L167.588 85.0902H168.788V73.9902H167.588L167.603 83.2602L161.093 73.9902Z" fill="white"/>
</svg>
