<svg width="177" height="91" viewBox="0 0 177 91" fill="none" xmlns="http://www.w3.org/2000/svg">
<path d="M46.578 16.824C46.578 16.39 46.454 16.328 46.144 16.328C45.896 16.328 45.834 16.886 45.214 19.304C40.316 37.718 15.206 57.992 5.472 57.992C3.922 57.992 3.178 56.566 3.178 54.272C3.178 43.36 19.794 11.926 42.92 11.926C43.726 11.926 44.036 12.298 44.036 12.856C44.036 15.894 34.426 25.38 30.892 25.38C30.706 25.38 30.644 25.318 30.644 25.256C30.644 24.822 31.14 24.698 31.14 24.388C31.14 24.14 30.892 24.078 30.768 24.078C30.396 24.078 28.908 25.752 28.908 26.372C28.908 26.806 29.404 26.992 30.024 27.116C36.534 27.054 44.904 17.134 44.904 12.98C44.904 11.864 44.284 11.182 42.92 11.182C18.554 11.182 0.946 40.384 0.946 52.97C0.946 56.442 2.248 58.612 5.162 58.612C24.32 58.55 44.532 32.138 46.578 16.824ZM30.7312 50.924L33.0872 49.436L34.8852 48.382C32.1572 51.792 27.9412 56.132 27.3212 56.814C27.3212 57.248 28.0652 57.124 28.9332 57.186C30.1732 57.186 30.8552 55.946 31.7232 55.264C32.1572 54.954 36.3112 51.854 40.6512 48.878C45.1152 45.778 50.2612 42.43 50.5712 42.244C50.5712 42.244 50.6332 42.182 50.6952 42.182C50.7572 42.182 50.8192 42.244 50.8192 42.306C50.8192 44.414 39.3492 51.42 39.3492 56.69C39.3492 56.938 39.4732 57.062 39.7212 57.062C41.8912 57.062 51.8732 50.428 51.8732 50.428L51.8112 49.622C51.8112 49.622 41.8292 56.194 40.7132 56.194C40.6512 56.194 40.6512 56.132 40.6512 56.132C40.6512 54.892 52.5552 46.088 52.5552 41.748C52.5552 41.376 52.4312 40.818 51.9972 40.818C51.3152 40.818 50.8812 41.19 50.0132 41.81C49.5172 42.244 37.9232 49.932 34.5752 52.536C34.4512 52.66 34.3272 52.722 34.2652 52.722C34.2032 52.722 34.2032 52.598 34.2032 52.598C34.2032 51.73 39.4732 46.46 42.3872 42.12C42.3872 40.88 41.6432 40.632 41.6432 40.632C39.8452 42.926 38.8532 44.848 32.5912 48.878L30.5452 50.18L30.7312 50.924ZM65.3349 41.066C65.3349 42.554 58.0809 48.754 53.7409 50.18C57.1509 45.716 62.7929 40.88 65.0869 40.88C65.2729 40.88 65.3349 40.942 65.3349 41.066ZM51.0129 55.698C51.0129 54.52 51.8189 52.846 53.1209 50.986C56.7169 49.932 67.5669 44.476 67.5669 41.066C67.5669 40.446 66.7609 40.136 66.1409 40.136C62.9789 40.136 49.7109 46.522 49.7109 54.954C49.7109 56.07 50.0209 57.124 51.4469 57.124C52.8729 57.124 57.0269 55.574 59.6309 54.024C62.6069 52.288 65.3969 50.428 65.3969 50.428L65.3349 49.622C65.3349 49.622 62.1729 51.668 59.2589 53.466C56.9029 54.892 52.5629 56.504 51.6329 56.504C51.2609 56.504 51.0129 56.194 51.0129 55.698ZM79.6259 39.826C85.2679 39.826 98.9699 25.504 98.9699 25.504C99.0319 25.38 99.0939 25.318 99.0939 25.256C99.0939 25.132 98.9699 25.07 98.7839 25.07C98.6599 25.07 98.4739 25.132 98.4119 25.194C98.4119 25.194 84.7719 39.02 80.1219 39.02C79.1299 39.02 78.6339 38.338 78.6339 37.222C78.6339 30.464 95.0019 6.842 108.89 6.842C110.006 6.842 110.936 7.4 110.936 8.826C110.936 18.126 76.8359 53.28 76.8359 55.946C76.8359 55.946 76.8979 56.69 78.5099 56.69C83.7799 50.986 116.764 21.66 120.546 18.25C120.67 18.188 120.732 18.126 120.794 18.126C120.794 18.126 120.856 18.126 120.856 18.188C120.856 19.8 96.9859 48.382 91.7779 54.892C91.0959 55.76 90.8479 56.256 90.8479 56.504C90.8479 56.814 92.0259 56.938 92.6459 56.938C93.2039 56.938 93.5759 56.69 94.0719 56.194C102.132 48.506 145.656 8.454 146.152 8.454C146.214 8.454 146.214 8.516 146.214 8.578C146.214 9.384 135.736 21.97 134.31 23.582C126.312 32.386 102.442 60.72 102.442 69.276C102.442 69.834 102.752 70.082 103.372 70.082C104.674 70.082 111.122 66.362 111.99 65.246C112.052 65.184 112.114 65.06 112.114 64.874C112.114 64.688 112.052 64.564 111.928 64.564C111.804 64.564 111.618 64.688 111.37 64.936C108.766 67.168 104.24 69.214 103.744 69.214C103.496 69.214 103.434 69.152 103.434 68.966C103.434 63.944 128.668 35.238 134.93 27.364C144.664 15.026 147.826 10.19 147.826 7.958C147.826 7.462 147.64 7.09 147.144 7.09C144.912 7.09 112.176 38.648 101.326 48.134C101.326 48.134 101.264 48.134 101.264 48.072C101.264 47.266 122.902 21.35 122.902 17.072C122.902 16.514 122.468 16.328 122.034 16.328C121.104 16.328 120.546 17.196 120.112 17.63C114.036 23.024 96.2419 39.144 86.9419 47.576C86.7559 47.7 86.4459 47.948 86.3839 47.886C93.2039 39.826 112.3 17.444 112.3 9.57C112.3 6.842 109.944 5.974 108.704 5.974C91.7159 5.974 77.3939 28.728 77.3939 36.912C77.3939 38.71 78.1379 39.826 79.6259 39.826ZM135.549 43.05C135.549 44.662 133.565 47.39 131.085 49.932C131.395 47.7 133.937 43.794 135.549 42.988V43.05ZM122.343 56.008C122.095 56.008 121.909 55.946 121.909 55.636C121.909 51.544 131.953 42.182 134.805 42.182C134.991 42.182 135.177 42.244 135.301 42.368C133.441 43.36 129.969 48.01 129.969 50.738V51.048C127.055 53.776 123.893 56.008 122.343 56.008ZM120.421 55.14C120.421 56.008 120.545 57 121.599 57C123.087 57 127.117 55.326 130.589 52.536C130.899 52.784 131.271 52.846 131.767 52.846C133.255 52.846 135.487 51.73 137.781 50.18L137.471 49.56C135.673 50.738 133.751 51.73 132.449 51.73C132.139 51.73 131.891 51.668 131.705 51.606C134.309 49.188 136.417 46.15 136.417 42.802C136.417 41.748 135.735 41.252 134.681 41.252C130.527 41.252 120.421 48.444 120.421 55.14ZM156.159 47.762L152.315 50.18C151.633 50.614 150.207 51.296 149.773 51.296C149.649 51.296 149.401 51.172 149.401 50.986C149.401 48.878 152.067 43.174 152.873 42.74C153.679 42.306 155.911 41.19 155.911 40.632C155.911 40.384 155.601 40.26 155.353 40.26C152.377 40.26 146.053 46.15 144.131 47.638C143.945 47.824 143.759 47.886 143.697 47.886C143.635 47.886 143.635 47.824 143.635 47.762C143.635 47.762 147.603 43.05 147.603 41.624C147.045 41.314 146.673 41.19 146.425 41.19C145.309 41.19 145.185 44.6 138.923 48.63L135.017 51.11L135.265 51.792C136.381 51.048 136.567 50.924 139.419 49.188L141.217 48.134C138.427 51.668 134.087 56.318 133.405 57.124C133.405 57.31 133.901 57.31 134.645 57.31C135.947 57.31 135.823 57 136.195 56.628C136.567 56.194 139.543 52.722 140.845 51.482C142.147 50.242 148.843 44.724 149.463 44.228C149.711 44.042 149.897 43.98 150.021 43.98L150.207 44.166C149.029 47.576 147.913 49.932 147.913 51.234C147.913 51.978 148.285 52.412 149.277 52.412C149.959 52.412 151.075 51.854 152.501 50.924C153.617 50.18 153.803 50.056 156.655 48.32L156.159 47.762ZM166.63 41.066C166.63 42.554 159.376 48.754 155.036 50.18C158.446 45.716 164.088 40.88 166.382 40.88C166.568 40.88 166.63 40.942 166.63 41.066ZM152.308 55.698C152.308 54.52 153.114 52.846 154.416 50.986C158.012 49.932 168.862 44.476 168.862 41.066C168.862 40.446 168.056 40.136 167.436 40.136C164.274 40.136 151.006 46.522 151.006 54.954C151.006 56.07 151.316 57.124 152.742 57.124C154.168 57.124 158.322 55.574 160.926 54.024C163.902 52.288 166.692 50.428 166.692 50.428L166.63 49.622C166.63 49.622 163.468 51.668 160.554 53.466C158.198 54.892 153.858 56.504 152.928 56.504C152.556 56.504 152.308 56.194 152.308 55.698Z" fill="white"/>
<path d="M19.3074 84.9434C18.2124 84.8234 17.6124 84.6284 16.9374 84.1934C17.4324 83.6384 18.5124 82.4534 18.5124 80.2184C18.5124 77.0534 16.0224 74.5034 12.7074 74.5034C9.39235 74.5034 6.91735 77.0834 6.91735 80.2634C6.91735 83.2334 9.18235 86.0084 12.7374 86.0084C14.1024 86.0084 15.2724 85.4984 16.0674 84.9734C16.6374 85.3634 17.2224 85.7384 18.4074 85.8884C18.6774 85.9334 18.9774 85.9634 19.3074 85.9934V84.9434ZM12.7074 75.5984C15.2274 75.5984 17.2824 77.5184 17.2824 80.2184C17.2824 81.4634 16.8324 82.6034 15.9474 83.4134C14.4924 82.2284 14.2074 81.9884 13.6374 81.6584C12.7374 81.1184 11.7324 80.8634 10.6524 80.8634C9.61735 80.8634 8.89735 81.1034 8.38735 81.2684C8.29735 80.9684 8.20735 80.5484 8.22235 79.8734C8.37235 77.3684 10.3074 75.5984 12.6924 75.5984H12.7074ZM12.7374 84.9134C11.7174 84.9134 9.66235 84.5084 8.61235 82.3034C9.09235 82.1234 9.63235 81.9284 10.5174 81.9284C11.6274 81.9284 12.6474 82.2434 13.6374 82.9184C13.7274 83.0084 14.8674 83.8934 15.1674 84.1784C14.7174 84.5084 13.8024 84.9134 12.7524 84.9134H12.7374ZM30.4666 82.6784H35.6416L36.9316 85.7984H38.2816L33.6916 74.6984H32.4916L27.8566 85.7984H29.1916L30.4666 82.6784ZM35.2666 81.6584H30.8416L33.0466 76.0934L35.2666 81.6584ZM53.9407 75.6434V74.6984H46.9357V75.7934H52.5307L47.0857 85.0034V85.7984H54.1507V84.7034H48.5857L53.9407 75.6434ZM65.4161 82.6784H70.5911L71.8811 85.7984H73.2311L68.6411 74.6984H67.4411L62.8061 85.7984H64.1411L65.4161 82.6784ZM70.2161 81.6584H65.7911L67.9961 76.0934L70.2161 81.6584ZM94.2745 84.9434C93.1795 84.8234 92.5795 84.6284 91.9045 84.1934C92.3995 83.6384 93.4795 82.4534 93.4795 80.2184C93.4795 77.0534 90.9895 74.5034 87.6745 74.5034C84.3595 74.5034 81.8845 77.0834 81.8845 80.2634C81.8845 83.2334 84.1495 86.0084 87.7045 86.0084C89.0695 86.0084 90.2395 85.4984 91.0345 84.9734C91.6045 85.3634 92.1895 85.7384 93.3745 85.8884C93.6445 85.9334 93.9445 85.9634 94.2745 85.9934V84.9434ZM87.6745 75.5984C90.1945 75.5984 92.2495 77.5184 92.2495 80.2184C92.2495 81.4634 91.7995 82.6034 90.9145 83.4134C89.4595 82.2284 89.1745 81.9884 88.6045 81.6584C87.7045 81.1184 86.6995 80.8634 85.6195 80.8634C84.5845 80.8634 83.8645 81.1034 83.3545 81.2684C83.2645 80.9684 83.1745 80.5484 83.1895 79.8734C83.3395 77.3684 85.2745 75.5984 87.6595 75.5984H87.6745ZM87.7045 84.9134C86.6845 84.9134 84.6295 84.5084 83.5795 82.3034C84.0595 82.1234 84.5995 81.9284 85.4845 81.9284C86.5945 81.9284 87.6145 82.2434 88.6045 82.9184C88.6945 83.0084 89.8345 83.8934 90.1345 84.1784C89.6845 84.5084 88.7695 84.9134 87.7195 84.9134H87.7045ZM103.274 82.7084C103.349 84.8234 104.894 85.9934 106.754 85.9934C108.824 85.9934 110.189 84.5534 110.189 82.7384C110.189 80.6984 108.539 80.1134 107.489 79.7084C105.809 79.1384 104.714 78.8084 104.729 77.4584C104.729 76.3034 105.644 75.5534 106.754 75.5534C108.224 75.5534 108.584 76.6484 108.719 77.3684H109.949C109.769 75.2684 108.179 74.5034 106.799 74.5034C105.104 74.5034 103.469 75.5984 103.499 77.5634C103.499 79.6634 105.434 80.2334 106.334 80.5034C107.624 80.9234 108.959 81.2684 108.959 82.8284C108.959 84.0584 107.894 84.9434 106.739 84.9434C106.049 84.9434 104.699 84.5534 104.519 82.7084H103.274ZM121.981 85.7984H123.226V75.7934H125.971V74.6984H119.251V75.7934H121.981V85.7984ZM136.047 82.6784H141.222L142.512 85.7984H143.862L139.272 74.6984H138.072L133.437 85.7984H134.772L136.047 82.6784ZM140.847 81.6584H136.422L138.627 76.0934L140.847 81.6584ZM154.751 74.6984H153.491V85.7984H154.691L154.661 76.4534L161.246 85.7984H162.446V74.6984H161.246L161.261 83.9684L154.751 74.6984Z" fill="white"/>
</svg>
